<?xml version="1.0" encoding="UTF-8" standalone="no"?>
<svg
   viewBox="0 0 448 512"
   version="1.1"
   id="svg728"
   sodipodi:docname="bluetooth.svg"
   inkscape:version="1.2.1 (9c6d41e, 2022-07-14)"
   xmlns:inkscape="http://www.inkscape.org/namespaces/inkscape"
   xmlns:sodipodi="http://sodipodi.sourceforge.net/DTD/sodipodi-0.dtd"
   xmlns="http://www.w3.org/2000/svg"
   xmlns:svg="http://www.w3.org/2000/svg">
  <defs
     id="defs732" />
  <sodipodi:namedview
     id="namedview730"
     pagecolor="#ffffff"
     bordercolor="#000000"
     borderopacity="0.25"
     inkscape:showpageshadow="2"
     inkscape:pageopacity="0.0"
     inkscape:pagecheckerboard="0"
     inkscape:deskcolor="#d1d1d1"
     showgrid="false"
     inkscape:zoom="1.5878906"
     inkscape:cx="223.88192"
     inkscape:cy="256"
     inkscape:window-width="1920"
     inkscape:window-height="1016"
     inkscape:window-x="0"
     inkscape:window-y="27"
     inkscape:window-maximized="1"
     inkscape:current-layer="svg728" />
  <!--! Font Awesome Pro 6.2.1 by @fontawesome - https://fontawesome.com License - https://fontawesome.com/license (Commercial License) Copyright 2022 Fonticons, Inc. -->
  <path
     d="M292.6 171.1L249.7 214l-.3-86 43.2 43.1m-43.2 219.8l43.1-43.1-42.9-42.9-.2 86zM416 259.4C416 465 344.1 512 230.9 512S32 465 32 259.4 115.4 0 228.6 0 416 53.9 416 259.4zm-158.5 0l79.4-88.6L211.8 36.5v176.9L138 139.6l-27 26.9 92.7 93-92.7 93 26.9 26.9 73.8-73.8 2.3 170 127.4-127.5-83.9-88.7z"
     id="path726"
     style="fill:#03d3d8;fill-opacity:1" />
</svg>
